<svg xmlns="http://www.w3.org/2000/svg" viewBox="0 0 367.17 279.69"><defs><style>.cls-1,.cls-2{fill:#fff;}.cls-2{opacity:0.5;}</style></defs><title>Artboard 1</title><g id="Layer_7" data-name="Layer 7"><path class="cls-1" d="M98,110.71a.63.63,0,0,1,.51-.73h0a.62.62,0,0,1,.72.52h0a.62.62,0,0,1-.51.72h-.11A.63.63,0,0,1,98,110.71Zm5-.86a.62.62,0,0,1,.51-.72h0a.62.62,0,0,1,.72.51h0a.62.62,0,0,1-.51.72h-.1A.62.62,0,0,1,103,109.85Zm5-.85a.62.62,0,0,1,.51-.72h0a.62.62,0,0,1,.72.51h0a.62.62,0,0,1-.51.72h-.1A.63.63,0,0,1,108,109Zm5-.85a.62.62,0,0,1,.51-.72h0a.63.63,0,0,1,.73.51h0a.63.63,0,0,1-.51.72h-.11A.64.64,0,0,1,113,108.15Zm5-.86a.64.64,0,0,1,.52-.72h0a.62.62,0,0,1,.72.51h0a.63.63,0,0,1-.51.73h-.11A.63.63,0,0,1,118,107.29Zm5-.85a.62.62,0,0,1,.51-.72h0a.62.62,0,0,1,.72.51h0a.63.63,0,0,1-.51.72h-.11A.62.62,0,0,1,123,106.44Zm5-.85a.62.62,0,0,1,.51-.72h0a.62.62,0,0,1,.72.51h0a.62.62,0,0,1-.51.72h-.11A.62.62,0,0,1,128,105.59Zm5-.86a.62.62,0,0,1,.51-.72h0a.63.63,0,0,1,.72.51h0a.63.63,0,0,1-.51.73h-.11A.61.61,0,0,1,133,104.73Zm5-.85a.62.62,0,0,1,.51-.72h0a.62.62,0,0,1,.72.51h0a.62.62,0,0,1-.51.72h-.11A.61.61,0,0,1,138,103.88Zm5-.85a.62.62,0,0,1,.51-.72h0a.62.62,0,0,1,.72.51h0a.62.62,0,0,1-.51.72h-.11A.63.63,0,0,1,143,103Zm5-.86a.61.61,0,0,1,.51-.71h0a.62.62,0,0,1,.72.51h0a.62.62,0,0,1-.51.72h-.1A.63.63,0,0,1,148,102.17Zm5-.85a.62.62,0,0,1,.51-.72h0a.62.62,0,0,1,.72.51h0a.62.62,0,0,1-.51.72h-.11A.62.62,0,0,1,153,101.32Zm5-.85a.62.62,0,0,1,.51-.72h0a.62.62,0,0,1,.72.51h0a.62.62,0,0,1-.51.72h-.1A.63.63,0,0,1,158,100.47Zm5-.85a.63.63,0,0,1,.51-.73h0a.64.64,0,0,1,.73.52h0a.64.64,0,0,1-.52.72h-.1A.63.63,0,0,1,163,99.62Zm5-.86a.63.63,0,0,1,.51-.72h0a.63.63,0,0,1,.73.51h0a.63.63,0,0,1-.52.72h-.1A.62.62,0,0,1,168,98.76Zm5-.85a.63.63,0,0,1,.52-.72h0a.62.62,0,0,1,.72.51h0a.64.64,0,0,1-.52.72h-.1A.63.63,0,0,1,173,97.91Zm5-.85a.63.63,0,0,1,.51-.72h0a.63.63,0,0,1,.73.51h0a.62.62,0,0,1-.51.72h-.11A.64.64,0,0,1,178,97.06Zm5-.86a.62.62,0,0,1,.51-.72h0a.62.62,0,0,1,.72.51h0a.62.62,0,0,1-.51.72h-.11A.61.61,0,0,1,183,96.2Zm5-.85a.62.62,0,0,1,.51-.72h0a.62.62,0,0,1,.72.51h0a.62.62,0,0,1-.51.72h-.11A.62.62,0,0,1,188,95.35Zm5-.85a.62.62,0,0,1,.51-.72h0a.62.62,0,0,1,.72.51h0a.62.62,0,0,1-.51.72h-.11A.62.62,0,0,1,193,94.5Zm5-.86a.62.62,0,0,1,.51-.72h0a.63.63,0,0,1,.72.51h0a.63.63,0,0,1-.51.73h-.11A.61.61,0,0,1,198,93.64Z"/><path class="cls-1" d="M57.53,104.32a.64.64,0,0,1,.5-.74h0a.63.63,0,0,1,.73.5h0a.62.62,0,0,1-.49.73h-.12A.63.63,0,0,1,57.53,104.32Zm5-1a.63.63,0,0,1,.49-.74h0a.63.63,0,0,1,.74.49h0a.63.63,0,0,1-.5.74h-.12A.63.63,0,0,1,62.51,103.34Zm5-1a.62.62,0,0,1,.49-.73h0a.63.63,0,0,1,.74.49h0a.64.64,0,0,1-.5.74H68.1A.63.63,0,0,1,67.49,102.35Zm5-1a.62.62,0,0,1,.49-.73h0a.61.61,0,0,1,.73.49h0a.61.61,0,0,1-.49.73h0l-.12,0h0A.62.62,0,0,1,72.47,101.37Zm5-1a.63.63,0,0,1,.5-.73h0a.62.62,0,0,1,.73.49h0a.61.61,0,0,1-.49.73h-.13A.62.62,0,0,1,77.44,100.39Zm5-1a.61.61,0,0,1,.49-.73h0a.63.63,0,0,1,.74.49h0a.63.63,0,0,1-.5.73H83A.62.62,0,0,1,82.42,99.41Zm5-1a.63.63,0,0,1,.49-.74h0a.63.63,0,0,1,.73.5h0a.62.62,0,0,1-.49.73H88A.63.63,0,0,1,87.4,98.43Zm5-1a.62.62,0,0,1,.49-.73h0a.62.62,0,0,1,.73.49h0a.63.63,0,0,1-.49.74H93A.62.62,0,0,1,92.38,97.44Zm5-1a.63.63,0,0,1,.49-.73h0a.63.63,0,0,1,.74.49h0a.63.63,0,0,1-.49.74H98A.63.63,0,0,1,97.35,96.46Zm5-1a.61.61,0,0,1,.49-.73h0a.63.63,0,0,1,.74.49h0a.63.63,0,0,1-.5.73h0l-.12,0h0A.63.63,0,0,1,102.33,95.48Zm5-1a.61.61,0,0,1,.49-.73h0a.61.61,0,0,1,.73.49h0A.61.61,0,0,1,108,95h-.12A.62.62,0,0,1,107.31,94.5Zm5-1a.64.64,0,0,1,.5-.74h0a.64.64,0,0,1,.73.5h0A.62.62,0,0,1,113,94h-.13A.62.62,0,0,1,112.28,93.52Zm5-1a.63.63,0,0,1,.49-.74h0a.64.64,0,0,1,.74.49h0A.64.64,0,0,1,118,93h-.13A.63.63,0,0,1,117.26,92.54Zm5-1a.63.63,0,0,1,.49-.74h0a.61.61,0,0,1,.73.49h0a.63.63,0,0,1-.49.74h-.12A.63.63,0,0,1,122.24,91.56Zm5-1a.62.62,0,0,1,.49-.73h0a.62.62,0,0,1,.73.49h0a.63.63,0,0,1-.49.74h-.12A.62.62,0,0,1,127.22,90.57Z"/><path class="cls-1" d="M229.26,82.57h0l-14.38-.69L203.8,91l-.65,4.88-1.3,13,6.84-6.19h14l12.38-12.38,7-7.2Zm-14.42,17.55a15,15,0,0,1-2-7.63,13.28,13.28,0,0,1,2.46-7.67,15,15,0,0,1,2.3,7.8A11.79,11.79,0,0,1,214.84,100.12Z"/><path class="cls-1" d="M144.43,90.18c0-3.33.85-4.84,1.76-6.05,1.69,2.52,1.68,7.3,1.68,7.3l3.48-6.3-7.73-8.48-4.54,13.59,3.15,11.94,3.44-6.43A22,22,0,0,1,144.43,90.18Z"/></g><g id="Whiskers"><path class="cls-2" d="M311.21,116.09l28.07-4.63.38-.06-.3-1.73-29.92,4.94L299,105.86l17.1-41.27,1-17.48,10.69-33.46L303.58,7.38,282.91,17.8,261.74,38l-12.38-6-36.18-4.5-31.25,8L154.15,3.78l-14,9.4-.73,30.14,4.44,10.37-14.72,45.1,3.2,18-7.79,8,.06,8.17,1.63,2.57L6.22,90.64l-.61,1.64,122.17,45.66.51.8-1.71,3.44L35.14,131.83l-.37,0-.2,1.74,91.18,10.32-2.1,4.23L61,155l.2,1.74L122.73,150l-1.59,3.2.34,1L87.3,168.25l.67,1.62L122,155.82l2,5.88L96.73,181.29l1,1.42,26.82-19.27,2.54,7.61,5.39,1.38,13,15.74L172,191.53l5.1-2.95.14,13.25,1.75,0-.15-14.23,9.83-5.68h0l1.16,10,1.85-.3-1.11-9.34,16.24,3.52,9,33.59,2.33,55.71,32.13-6.49L311,229.43l.14-.09,34.59-41.18,14.2-33L319.53,123ZM208.62,183.93l-18.35-4,0-.29L207.9,174l13.24,13.54,1.25-1.23-12.62-12.91,34.43-11,17.37,6.42-43.9,49.11Zm-62,2.12-12.38-15,5.79,1.1h.06l1.65-3.63,15.59,1.9,2.63,3,16.86-1.86L177,186l-5.54,3.2Zm-17.82-16.88-5.28-15.85,3.94-7.94,5.72,9.43.13-.08v0l.21,0h0l2.82.66,9.62,2.22-2.13,4.7-4.11,9L132.1,170h0l-.37-.07Zm11.2-96.59,11,12.71L135.43,114h0l-1.08,1.39L131.44,99ZM160.15,43l-6.34-12.38.59-23.14,25.75,29.27ZM146.21,53.71l13.8-10,20.61-6.44.18.21L156.05,57.92l-4.74,26.67-11-12.73Zm116.61,113.7-15.92-5.88,10.76-3.44,14.87-11.56-9.38,20.52ZM160.73,136.15l1.56,2.72,9.28-4.3,4.76-9.72,23.89-4.09L188,140.84l-10.24-.32h-.12l-17.25,13.35-7.5-14.21ZM204.26,91,215,82.2l26.94,1h.14l15.75-15.5h0l15.51-29.12,2.48,14.36,2.08,11.77,1.95,12,0,0-3.7,43.33-64.44,10.64L201.21,120.2Zm-7.13,52.11-.61,1.64,9,3.32-3.42,8.73-13.5-15.7,12.36-20.3,10,10L198.29,133l.29,1.73,13-2.15-2.71,6.91-10.37-.86-.36,0-.22,1.73,10.28.86-2.09,5.33Zm74.22,1.49-55.94-12.73,74.85-12.36-16.74,25.27Zm-57.63-12.45,53,12.07-57.16-4.76,2.78-7.08Zm-66.59,25.54,10.44-.92h.09l.06-.05,3-2.28v0l17.16-13.28,10.16.32,13.68,15.9-4,3.63-6.07-6.21L190.35,156l6,6.15L189,168.86l-1.12-9.3-1.69.3,1.13,9.91-8.66,1-.11-9.64-1.75,0,.11,9.81-16.58,1.84ZM189,169.65l7.78-7,10.58,10.83L190.16,179Zm9.08-8.16,4.35-3.91h0l3.63-9.25,37.1,13.7-34,10.86Zm59.28-4-11.49,3.68L206.74,146.7l2.16-5.49,62.71,5.21Zm61.38-7.15.35,0,.22-1.74-45.09-3.75,16.88-25.47,17.14-2.83,9.83,8.2,1.05.84,24.93,60.77-.19.45L310.08,227.1l-35.65-80.45Zm-26.59-32.88,4.56-10.52,9.76,8.16Zm-.77.13L276.85,120l3.67-43,32.8-11.65L296.93,104.9ZM280.85,22.86l-7.6,14.47v.08h0l-15,28.24,4-25.06ZM248.71,34.1l12.89,6.28-4.34,26.94-15.45,15.2-26.71-1-9-22.89L248,34Zm-43.17,25,9,22.63L203.7,90.66h0v.06l0,0,0,0L200.57,120l-24.15,4.13-.31-6.43,7-33.43Zm-30.07,58.73.31,6.62-4.69,9.59L162.56,138l-4.12-7.16-8.84,3.95,10.26,19.45-2.44,1.9-10.67.94-3.52-32.57,26.29-11.4ZM142.93,124l-8.19-6.47-.22-1.27,1.42-1.85,10-6.43H163l6,4.75Zm-8.62-6,8.26,6.54L146.09,157l-9.23-2.13-2.69-.62L140,134.71l-.23-.12h0l-7.82-4.24-.35-.19-.11.39h0l-1.81,6.08-2.78-4.38,0-6.6Zm-4.17,19.49.62-2.18,6.84,5.12-3.95,13.35-5.79-9.09,3-6.06Zm48.47,33.92,8.74-1,1,9.12-.14,0L178.76,185Zm84.87-3.72.18-.21,9.15-20-4.29,22.05Zm81,17.89-24.25-59.1,37,29.4ZM213.32,29.7,247,33.88,205.48,58.25,182.6,83.94l-.06.06-7,33.13-12.39-9.84H145.72l-9.11,5.87,15.24-28,4.8-26.91,24.71-20.45Zm36,236.82-29.12,5.88L218,219.2l-.14-.52,44.36-49.62,5.95,2.2-18.53,95.07Zm19.43-95,4.89,1.81.6-1.64-5.15-1.91,4.51-23.14,36,81.05-59.2,38.19Z"/></g></svg>